<svg width="41" height="41" viewBox="0 0 41 41" fill="none" xmlns="http://www.w3.org/2000/svg">
<g clip-path="url(#clip0_78_109)">
<path d="M35.0279 0.216797H6.66812C3.42826 0.216797 0.79248 2.84528 0.79248 6.07617V34.3574C0.79248 37.5883 3.42826 40.2168 6.66812 40.2168H35.0279C38.2677 40.2168 40.9035 37.5883 40.9035 34.3574V6.07617C40.9035 2.84528 38.2677 0.216797 35.0279 0.216797ZM38.5533 34.3574C38.5533 36.2959 36.9717 37.873 35.0279 37.873H6.66812C4.72426 37.873 3.14274 36.2959 3.14274 34.3574V6.07617C3.14274 4.1377 4.72426 2.56055 6.66812 2.56055H35.0279C36.9717 2.56055 38.5533 4.1377 38.5533 6.07617V34.3574Z" fill="#070707" stroke="#070707" stroke-width="0.5"/>
<path d="M19.6727 16.7012C19.6727 14.1163 17.5642 12.0137 14.9722 12.0137H7.92139V28.4199H14.9722C17.5642 28.4199 19.6727 26.3173 19.6727 23.7324C19.6727 22.3335 19.0542 21.0765 18.0761 20.2168C19.0542 19.3571 19.6727 18.1001 19.6727 16.7012ZM17.3224 23.7324C17.3224 25.0248 16.2682 26.0762 14.9722 26.0762H10.2716V21.3887H14.9722C16.2682 21.3887 17.3224 22.44 17.3224 23.7324ZM10.2716 19.0449V14.3574H14.9722C16.2682 14.3574 17.3224 15.4088 17.3224 16.7012C17.3224 17.9936 16.2682 19.0449 14.9722 19.0449H10.2716Z" fill="#070707" stroke="#070707" stroke-width="0.5"/>
<path d="M27.8986 16.7012C24.6587 16.7012 22.0229 19.3297 22.0229 22.5605C22.0229 25.7914 24.6587 28.4199 27.8986 28.4199C29.9896 28.4199 31.9396 27.2978 32.9874 25.4911L30.953 24.3174C30.3238 25.4023 29.1533 26.0762 27.8986 26.0762C26.3663 26.0762 25.0596 25.0966 24.5746 23.7324H33.7742V22.5605C33.7742 19.3297 31.1385 16.7012 27.8986 16.7012ZM24.5746 21.3887C25.0596 20.0245 26.3663 19.0449 27.8986 19.0449C29.4308 19.0449 30.7376 20.0245 31.2226 21.3887H24.5746Z" fill="#070707" stroke="#070707" stroke-width="0.5"/>
<path d="M23.1982 12.0137H32.5993V14.3574H23.1982V12.0137Z" fill="#070707" stroke="#070707" stroke-width="0.5"/>
</g>
<defs>
<clipPath id="clip0_78_109">
<rect width="40.111" height="40" fill="white" transform="translate(0.79248 0.216797)"/>
</clipPath>
</defs>
</svg>
