<svg width="40" height="40" viewBox="0 0 40 40" fill="none" xmlns="http://www.w3.org/2000/svg">
<path d="M30.3716 7.11869L30.6773 6.73445L30.2987 6.42181C27.3833 4.01466 23.6806 2.57677 19.6298 2.57677C18.2106 2.57677 16.8347 2.77559 15.5319 3.1013L14.8048 3.28309L15.2519 3.88464C16.6425 5.75551 18.6402 8.58108 21.0326 13.0064L21.2392 13.3886L21.6465 13.2373C26.1738 11.5563 28.8867 8.98483 30.3716 7.11869ZM13.0713 4.36091L12.8263 4.03813L12.4597 4.21102C7.96361 6.33185 4.55724 10.3827 3.21258 15.3296L3.04651 15.9406L3.67935 15.9605C6.15525 16.0385 12.0735 15.9218 18.6311 14.165L19.2496 13.9993L18.9389 13.4394C16.3955 8.85573 14.2565 5.92219 13.0713 4.36091ZM32.5251 8.6199L32.1374 8.15926L31.7558 8.62499C30.0998 10.6462 27.2245 13.2715 22.6722 15.0529L22.1659 15.251L22.4056 15.7389C23.3871 17.7371 24.3393 19.8664 25.2069 22.1658L25.3498 22.5447L25.7501 22.4836C29.0434 21.9807 32.0876 21.9807 34.387 22.1608C34.9461 22.2072 35.3068 22.2593 35.7267 22.3199C35.8152 22.3327 35.9063 22.3459 36.0024 22.3594L36.5144 22.4317L36.5694 21.9175C36.6368 21.2869 36.6756 20.6536 36.6756 19.999C36.6756 15.6455 35.0982 11.677 32.5251 8.6199ZM20.3781 16.2472L20.193 15.876L19.794 15.9894C12.0807 18.1807 5.28604 18.1138 3.16999 18.0284L2.68815 18.0089L2.65128 18.4897L2.6487 18.5233C2.61214 18.9999 2.57461 19.4889 2.57461 20.0086C2.57461 25.2424 4.83898 29.9144 8.40992 33.1113L8.78272 33.4451L9.11619 33.072C10.0113 32.0707 11.2119 30.7954 12.6715 29.4642L12.6735 29.4624C15.4198 26.9307 18.9532 24.2519 22.8022 23.0831L23.3191 22.9261L23.1227 22.4229C22.2612 20.2152 21.3336 18.163 20.3781 16.2472ZM29.8676 24.1434L29.8622 24.1436C28.8511 24.1924 27.7748 24.2899 26.6803 24.4359L26.0855 24.5152L26.2708 25.0859C27.1946 27.9298 27.9587 30.9423 28.4523 34.0761L28.5766 34.865L29.2319 34.4087C32.418 32.1901 34.828 28.8931 35.9507 25.0227L36.116 24.4531L35.5266 24.3866C34.0666 24.2217 32.2153 24.0555 29.8676 24.1434ZM24.2116 25.3287L24.058 24.8753L23.5984 25.009C20.217 25.9929 16.6801 28.5441 13.9997 31.0044C12.7045 32.183 11.6585 33.3018 10.819 34.2183L10.4063 34.6688L10.9296 34.9842C13.4751 36.5186 16.431 37.4213 19.6204 37.4213C22.0141 37.4213 24.2718 36.9156 26.3337 36.0246L26.6817 35.8741L26.6308 35.4984C26.1465 31.9246 25.2923 28.5185 24.2116 25.3287ZM0.575684 19.999C0.575684 9.24581 9.14293 0.5 19.6298 0.5C30.1167 0.5 38.6839 9.24581 38.6839 19.999C38.6839 30.7522 30.1167 39.498 19.6298 39.498C9.14293 39.498 0.575684 30.7522 0.575684 19.999Z" fill="#070707" stroke="#070707"/>
</svg>
