<svg width="40" height="40" viewBox="0 0 40 40" fill="none" xmlns="http://www.w3.org/2000/svg">
<path d="M11.8745 0.50961H12.3745V0.5H28.2793C34.2439 0.5 39.1263 5.48469 39.1263 11.612V28.386C39.1263 34.5136 34.2436 39.498 28.2887 39.498H11.8745C5.9086 39.498 1.01807 34.5216 1.01807 28.4052V11.6216C1.01807 5.49485 5.9094 0.50961 11.8745 0.50961ZM3.02639 11.6303V11.6312V28.4149C3.02639 33.401 6.95395 37.4316 11.8745 37.4316H28.2887C33.1919 37.4316 37.118 33.3995 37.118 28.3956V11.6216C37.118 6.6174 33.1915 2.58565 28.2793 2.58565H11.8745C6.96174 2.58565 3.03632 6.61773 3.02639 11.6303ZM31.1107 7.6997C31.1107 7.10977 31.5648 6.66168 32.1149 6.66168C32.665 6.66168 33.1191 7.10977 33.1191 7.6997C33.1191 8.28963 32.665 8.73772 32.1149 8.73772C31.5648 8.73772 31.1107 8.28963 31.1107 7.6997ZM10.0525 20.0038C10.0525 14.3481 14.5771 9.73772 20.0816 9.73772C25.5861 9.73772 30.1107 14.3481 30.1107 20.0038C30.1107 25.6596 25.5861 30.2699 20.0816 30.2699C14.5771 30.2699 10.0525 25.6596 10.0525 20.0038ZM28.1024 20.0038C28.1024 15.4702 24.5422 11.8137 20.0816 11.8137C15.621 11.8137 12.0608 15.4702 12.0608 20.0038C12.0608 24.5374 15.621 28.1939 20.0816 28.1939C24.5422 28.1939 28.1024 24.5374 28.1024 20.0038Z" fill="#070707" stroke="#070707"/>
</svg>
